<svg width="20" height="21" viewBox="0 0 20 21" fill="none" xmlns="http://www.w3.org/2000/svg">
<g clip-path="url(#clip0_1_118)">
<path fill-rule="evenodd" clip-rule="evenodd" d="M5.65798 3.9464H15.3789V17.9445H5.65798V16.0003H3.71381V14.0561H5.65798V11.9175H3.71381V9.97334H5.65798V7.83475H3.71381V5.89057H5.65798V3.9464ZM10.5184 7.64033C9.98183 7.64033 9.54634 8.07583 9.54634 8.61242V9.00126H7.60216V8.61242C7.60225 8.13288 7.72059 7.66076 7.94671 7.23787C8.17283 6.81498 8.49974 6.45438 8.89849 6.18801C9.29725 5.92163 9.75554 5.75769 10.2328 5.71072C10.71 5.66375 11.1915 5.73519 11.6345 5.91872C12.0775 6.10224 12.4685 6.39219 12.7727 6.76288C13.0769 7.13357 13.285 7.57356 13.3786 8.04388C13.4722 8.5142 13.4484 9.00035 13.3092 9.45926C13.17 9.91816 12.9199 10.3357 12.5808 10.6748L11.4905 11.7643V12.8896H9.54634V10.9594L11.2059 9.29988C11.3419 9.16393 11.4345 8.99071 11.472 8.80212C11.5095 8.61353 11.4903 8.41804 11.4167 8.24039C11.3431 8.06275 11.2185 7.91091 11.0586 7.8041C10.8987 7.69729 10.7107 7.6403 10.5184 7.64033ZM9.54634 16.3891V14.445H11.4905V16.3891H9.54634Z" fill="#EAECEF"/>
</g>
<defs>
<clipPath id="clip0_1_118">
<rect width="18.6641" height="20" fill="white" transform="translate(0.603149 0.945435)"/>
</clipPath>
</defs>
</svg>
