<svg width="25" height="25" viewBox="0 0 25 25" fill="none" xmlns="http://www.w3.org/2000/svg">
<g clip-path="url(#clip0_1_106)">
<path fill-rule="evenodd" clip-rule="evenodd" d="M15.3026 21.3481C18.3035 20.1935 20.5296 17.4775 20.9856 14.1954H17.0437C16.8967 17.0556 16.251 19.5834 15.3026 21.3481ZM14.5449 14.1954C14.3671 18.2972 13.3275 21.4454 12.0717 21.4454C10.8159 21.4454 9.77637 18.2972 9.59857 14.1954H14.5449ZM14.5449 11.6954H9.59857C9.77637 7.59364 10.8159 4.44543 12.0717 4.44543C13.3275 4.44543 14.3671 7.59364 14.5449 11.6954ZM17.0437 11.6954H20.9856C20.5296 8.41329 18.3035 5.69734 15.3026 4.54274C16.251 6.30741 16.8967 8.83522 17.0437 11.6954ZM7.10756 11.6954C7.25472 8.83317 7.90118 6.30379 8.85072 4.53896C5.84481 5.69141 3.61439 8.4097 3.15784 11.6954H7.10756ZM7.10756 14.1954H3.15784C3.61439 17.4811 5.84481 20.1994 8.85072 21.3519C7.90118 19.587 7.25472 17.0577 7.10756 14.1954Z" fill="#EAECEF"/>
</g>
<defs>
<clipPath id="clip0_1_106">
<rect width="24" height="24" fill="white" transform="translate(0.0718994 0.945435)"/>
</clipPath>
</defs>
</svg>
