<svg width="19" height="21" viewBox="0 0 19 21" fill="none" xmlns="http://www.w3.org/2000/svg">
<g clip-path="url(#clip0_1_121)">
<path fill-rule="evenodd" clip-rule="evenodd" d="M10.9991 3.9464H8.19945V5.52273C7.68619 5.65494 7.20014 5.85791 6.75454 6.12154L5.64091 5.00636L3.66019 6.98709L4.77537 8.10149C4.50875 8.55254 4.30715 9.03898 4.17656 9.5464H2.60022V12.346H4.17656C4.30876 12.8593 4.51173 13.3453 4.77537 13.7909L3.66019 14.9038L5.64014 16.8837L6.75454 15.7685C7.20014 16.0322 7.68541 16.2352 8.19945 16.3674V17.9445H10.9991V16.3681C11.5065 16.2375 11.9929 16.0359 12.444 15.7693L13.5584 16.8845L15.5383 14.9046L14.4231 13.7894C14.6897 13.3386 14.8913 12.8524 15.022 12.3452H16.5983V9.54563H15.022C14.8914 9.03821 14.6898 8.55177 14.4231 8.10071L15.5383 6.98631L13.5584 5.00636L12.4432 6.12154C11.9924 5.85498 11.5062 5.65339 10.9991 5.52273V3.9464ZM7.49955 10.9454C7.49955 10.3886 7.72077 9.85449 8.11454 9.46071C8.50831 9.06694 9.04238 8.84572 9.59926 8.84572C10.1561 8.84572 10.6902 9.06694 11.084 9.46071C11.4777 9.85449 11.699 10.3886 11.699 10.9454C11.699 11.5023 11.4777 12.0364 11.084 12.4302C10.6902 12.8239 10.1561 13.0451 9.59926 13.0451C9.04238 13.0451 8.50831 12.8239 8.11454 12.4302C7.72077 12.0364 7.49955 11.5023 7.49955 10.9454Z" fill="#EAECEF"/>
</g>
<defs>
<clipPath id="clip0_1_121">
<rect width="18.6641" height="20" fill="white" transform="translate(0.267212 0.945435)"/>
</clipPath>
</defs>
</svg>
