<svg width="25" height="25" viewBox="0 0 25 25" fill="none" xmlns="http://www.w3.org/2000/svg">
<g clip-path="url(#clip0_1_91)">
<path fill-rule="evenodd" clip-rule="evenodd" d="M12.0719 3.94543C17.0425 3.94543 21.0719 7.97487 21.0719 12.9454C21.0719 17.916 17.0425 21.9454 12.0719 21.9454C7.10134 21.9454 3.0719 17.916 3.0719 12.9454C3.0719 7.97487 7.10134 3.94543 12.0719 3.94543ZM14.5719 10.4454C14.5719 11.8261 13.4526 12.9454 12.0719 12.9454C10.6912 12.9454 9.5719 11.8261 9.5719 10.4454C9.5719 9.06472 10.6912 7.94543 12.0719 7.94543C13.4526 7.94543 14.5719 9.06472 14.5719 10.4454ZM12.0719 14.9415H8.73852C8.04305 14.9415 7.44708 15.7115 7.19727 16.4615C7.80442 17.4088 9.53021 18.9257 12.0719 18.9477C14.6135 18.9697 16.378 17.307 16.9464 16.4615C16.6966 15.7115 16.1007 14.9415 15.4052 14.9415H12.0719Z" fill="#EAECEF"/>
</g>
<defs>
<clipPath id="clip0_1_91">
<rect width="24" height="24" fill="white" transform="translate(0.0718994 0.945435)"/>
</clipPath>
</defs>
</svg>
