<svg width="121" height="25" viewBox="0 0 121 25" fill="none" xmlns="http://www.w3.org/2000/svg">
<g clip-path="url(#clip0_1_8)">
<path d="M6.34527 12.9454L3.65127 15.6404L0.931274 12.9454L3.65027 10.2264L6.34527 12.9454ZM12.9313 6.35943L17.5713 10.9994L20.2913 8.28143L12.9313 0.945435L5.57127 8.30543L8.29127 11.0234L12.9313 6.35943ZM22.2123 10.2264L19.5173 12.9454L22.2363 15.6644L24.9543 12.9454L22.2123 10.2264ZM12.9313 19.5314L8.29127 14.8674L5.57127 17.5864L12.9313 24.9454L20.2913 17.5854L17.5713 14.8674L12.9313 19.5314ZM12.9313 15.6414L15.6503 12.9214L12.9313 10.2274L10.2123 12.9454L12.9313 15.6404V15.6414ZM41.5253 15.9214V15.8754C41.5253 14.1174 40.5873 13.2264 39.0643 12.6404C40.0013 12.1254 40.7983 11.2804 40.7983 9.80443V9.75843C40.7983 7.69543 39.1343 6.35943 36.4623 6.35943H30.3453V19.5084H36.6033C39.5793 19.5314 41.5253 18.3124 41.5253 15.9224V15.9214ZM37.9153 10.2974C37.9153 11.2814 37.1183 11.6794 35.8293 11.6794H33.1583V8.89043H36.0173C37.2363 8.89043 37.9153 9.38243 37.9153 10.2504V10.2974ZM38.6423 15.5474C38.6423 16.5314 37.8693 16.9774 36.6023 16.9774H33.1583V14.0934H36.5093C37.9863 14.0934 38.6423 14.6334 38.6423 15.5234V15.5474ZM47.5953 19.5314V6.35943H44.6893V19.5084H47.5953V19.5314ZM63.1583 19.5314V6.35943H60.2983V14.4694L54.1343 6.35943H51.4623V19.5084H54.3223V11.1644L60.6973 19.5314H63.1573H63.1583ZM79.1883 19.5314L73.5413 6.28943H70.8703L65.2213 19.5314H68.1983L69.3933 16.5784H74.9483L76.1433 19.5314H79.1903H79.1883ZM73.9153 14.0234H70.4233L72.1813 9.75843L73.9153 14.0234ZM92.9943 19.5314V6.35943H90.1343V14.4694L83.9703 6.35943H81.2983V19.5084H84.1583V11.1644L90.5333 19.5314H92.9933H92.9943ZM107.923 17.3984L106.072 15.5474C105.04 16.4844 104.126 17.0934 102.603 17.0934C100.353 17.0934 98.7833 15.2184 98.7833 12.9684V12.8984C98.7833 10.6484 100.376 8.79743 102.603 8.79743C103.915 8.79743 104.947 9.35943 105.978 10.2734L107.829 8.14043C106.611 6.94543 105.134 6.10143 102.65 6.10143C98.6193 6.10143 95.7833 9.17143 95.7833 12.8984V12.9454C95.7833 16.7184 98.6653 19.7184 102.533 19.7184C105.064 19.7424 106.564 18.8514 107.923 17.3984ZM120.275 19.5314V16.9534H113.126V14.1874H119.337V11.6094H113.126V8.93743H120.181V6.35943H110.267V19.5084H120.275V19.5314Z" fill="#F0B90B"/>
</g>
<defs>
<clipPath id="clip0_1_8">
<rect width="120" height="24" fill="white" transform="translate(0.931274 0.945435)"/>
</clipPath>
</defs>
</svg>
